<svg width="24" height="24" viewBox="0 0 24 24" fill="none" xmlns="http://www.w3.org/2000/svg">
<path fill-rule="evenodd" clip-rule="evenodd" d="M3.1499 11.5699C3.1499 12.1222 3.59762 12.5699 4.1499 12.5699C4.68658 12.5538 5.11477 12.1168 5.1199 11.5799C5.1608 9.26189 6.53349 7.17485 8.64574 6.2192C10.758 5.26356 13.2318 5.61033 14.9999 7.10991H14.6799C14.1276 7.10991 13.6799 7.55762 13.6799 8.10991C13.6799 8.66219 14.1276 9.10991 14.6799 9.10991H17.5099C18.0622 9.10991 18.5099 8.66219 18.5099 8.10991V5.27991C18.5099 4.72762 18.0622 4.27991 17.5099 4.27991C16.9576 4.27991 16.5099 4.72762 16.5099 5.27991V5.71991C14.1751 3.6123 10.8218 3.06846 7.94056 4.3301C5.05928 5.59174 3.18468 8.4247 3.1499 11.5699ZM17.8399 12.2799C17.8399 11.7276 18.2876 11.2799 18.8399 11.2799C19.3844 11.2853 19.8245 11.7254 19.8299 12.2699C19.8633 14.4219 19.0183 16.4946 17.4899 18.0099C14.4771 21.0075 9.64618 21.1261 6.4899 18.2799V18.7199C6.4899 19.2722 6.04219 19.7199 5.4899 19.7199C4.93762 19.7199 4.4899 19.2722 4.4899 18.7199V15.8899C4.4899 15.3376 4.93762 14.8899 5.4899 14.8899H8.3499C8.90219 14.8899 9.3499 15.3376 9.3499 15.8899C9.3499 16.4422 8.90219 16.8899 8.3499 16.8899H7.9999C9.78853 18.3797 12.2774 18.7005 14.3854 17.7129C16.4933 16.7254 17.8398 14.6077 17.8399 12.2799Z" fill="#939393"/>
</svg>
